<?xml version="1.0" encoding="UTF-8"?>
<!DOCTYPE svg PUBLIC "-//W3C//DTD SVG 1.1//EN" "http://www.w3.org/Graphics/SVG/1.1/DTD/svg11.dtd">
<!-- Creator: CorelDRAW -->
<svg xmlns="http://www.w3.org/2000/svg" xml:space="preserve" width="279.4mm" height="215.9mm" style="shape-rendering:geometricPrecision; text-rendering:geometricPrecision; image-rendering:optimizeQuality; fill-rule:evenodd; clip-rule:evenodd"
viewBox="0 0 279.4 215.9"
 xmlns:xlink="http://www.w3.org/1999/xlink">
 <defs>
  <style type="text/css">
   <![CDATA[
    .fil1 {fill:#AAA9A9}
    .fil0 {fill:#00669B}
    .fil2 {fill:#72706F;fill-rule:nonzero}
    .fil3 {fill:#DFA597;fill-rule:nonzero}
   ]]>
  </style>
 </defs>
 <g id="Capa_x0020_1">
  <metadata id="CorelCorpID_0Corel-Layer"/>
  <g id="_152617064">
   <g>
    <path id="_43177960" class="fil0" d="M264.212 84.159l-247.948 0 -1.0754 0 0 -67.6549 249.023 0 0 1.201 0 66.4539zm-121.031 -10.4566l1.0754 0 44.1285 0 0 -9.8257 -0.201 0 -16.4127 0 -1.0754 0 0 -19.6515 17.6891 0 0 -9.8257 -0.201 0 -45.0029 0 0 9.8257 1.0754 0 16.6137 0 0 1.201 0 18.4505 -17.6891 0 0 9.8257zm57.1983 -39.3029l45.0029 0 0.201 0 0 9.8257 -35.3782 0 0 29.4772 -8.7503 0 -1.0754 0 0 -39.3029zm-113.753 9.8257l1.0754 0 16.6137 0 0 1.201 0 28.2762 1.0754 0 8.7503 0 0 -29.4772 17.6891 0 0 -9.8257 -0.201 0 -45.0029 0 0 9.8257zm-52.8085 -9.8257l45.0029 0 0.201 0 0 9.8257 -35.3782 0 0 29.4772 -8.7503 0 -1.0754 0 0 -39.3029z"/>
    <polygon id="_43175696" class="fil1" points="34.8927,35.6005 78.8202,35.6005 78.8202,34.3995 33.8173,34.3995 33.8173,73.7024 34.8927,73.7024 "/>
    <polygon id="_43175624" class="fil1" points="131.629,35.6005 87.7012,35.6005 87.7012,44.2252 86.6258,44.2252 86.6258,34.3995 131.629,34.3995 "/>
    <polygon id="_43175552" class="fil1" points="104.315,45.4262 105.39,45.4262 105.39,73.7024 104.315,73.7024 "/>
    <polygon id="_43175480" class="fil1" points="201.454,35.6005 245.382,35.6005 245.382,34.3995 200.379,34.3995 200.379,73.7024 201.454,73.7024 "/>
    <polygon id="_43174984" class="fil1" points="160.87,45.4262 161.945,45.4262 161.945,65.0777 144.256,65.0777 144.256,73.7024 143.181,73.7024 143.181,63.8767 160.669,63.8767 160.87,63.8767 "/>
    <polygon id="_43458920" class="fil1" points="188.183,35.6005 144.256,35.6005 144.256,44.2252 143.181,44.2252 143.181,34.3995 188.183,34.3995 "/>
    <polygon id="_43932992" class="fil1" points="188.183,65.0777 171.771,65.0777 171.771,63.8767 188.183,63.8767 "/>
    <path id="_43115504" class="fil2" d="M19.498 97.787l3.7337 0c0.0351,0.7116 0.2899,1.2431 0.7731,1.5901 0.4788,0.347 1.1992,0.5227 2.1611,0.5227 0.7292,0 1.2959,-0.123 1.6956,-0.369 0.3997,-0.2415 0.5974,-0.5886 0.5974,-1.0366 0,-0.6325 -0.7468,-1.1113 -2.2403,-1.4276 -0.6105,-0.1274 -1.0937,-0.2416 -1.4539,-0.3338 -1.8229,-0.4657 -3.0836,-1.0103 -3.7908,-1.6473 -0.7072,-0.6325 -1.063,-1.4935 -1.063,-2.574 0,-1.432 0.5183,-2.5653 1.5506,-3.3999 1.0322,-0.839 2.4335,-1.2563 4.1993,-1.2563 1.8712,0 3.3428,0.4173 4.4102,1.2475 1.0674,0.8346 1.634,2.003 1.7043,3.5141l-3.6415 0c-0.0263,-0.593 -0.2504,-1.0498 -0.6764,-1.3793 -0.4217,-0.325 -1.0147,-0.4876 -1.7703,-0.4876 -0.7116,0 -1.2387,0.1055 -1.5857,0.3207 -0.347,0.2152 -0.5227,0.5359 -0.5227,0.9664 0,0.5578 0.9312,1.0498 2.7937,1.4803 0.4261,0.0922 0.7643,0.1713 1.0147,0.2328 1.8624,0.4348 3.1363,0.962 3.8172,1.5813 0.6808,0.615 1.0234,1.4847 1.0234,2.6092 0,1.5901 -0.5578,2.7981 -1.6779,3.6327 -1.1202,0.8302 -2.7498,1.2475 -4.8846,1.2475 -1.9328,0 -3.4438,-0.4349 -4.5332,-1.3002 -1.0893,-0.8654 -1.634,-2.0601 -1.634,-3.58l0 -0.1537z"/>
    <path id="_431155041" class="fil2" d="M45.3184 98.0989l3.7337 0c-0.3777,1.4759 -1.1377,2.6311 -2.2841,3.4657 -1.1465,0.839 -2.5433,1.2563 -4.1906,1.2563 -2.0249,0 -3.6282,-0.6809 -4.8143,-2.0382 -1.1816,-1.3617 -1.7746,-3.2022 -1.7746,-5.5302 0,-2.2886 0.5843,-4.094 1.7483,-5.4161 1.1684,-1.3222 2.7629,-1.9811 4.7879,-1.9811 2.148,0 3.804,0.6501 4.9725,1.9503 1.164,1.3002 1.7482,3.1495 1.7482,5.5523 0,0.2679 0,0.4656 -0.0044,0.6018 -0.0044,0.1317 -0.0176,0.2591 -0.0351,0.3777l-9.3431 0c0.0527,1.0982 0.3207,1.924 0.8039,2.4818 0.4831,0.5579 1.1816,0.8346 2.0908,0.8346 0.6457,0 1.1729,-0.1273 1.5814,-0.3777 0.4129,-0.2548 0.7379,-0.6457 0.9795,-1.1772zm-5.4556 -4.2213l5.5083 0c-0.0351,-0.9444 -0.2855,-1.6604 -0.7511,-2.1568 -0.47,-0.492 -1.1421,-0.738 -2.0162,-0.738 -0.8126,0 -1.454,0.2504 -1.924,0.7468 -0.4656,0.4963 -0.7379,1.2123 -0.817,2.148z"/>
    <path id="_4311550412" class="fil2" d="M62.1955 97.071l3.6942 0c-0.1538,1.7746 -0.8039,3.1758 -1.9416,4.2081 -1.142,1.0279 -2.6092,1.5418 -4.4013,1.5418 -2.0338,0 -3.6283,-0.6633 -4.7836,-1.9898 -1.1552,-1.3222 -1.7307,-3.1583 -1.7307,-5.4996 0,-2.3325 0.5886,-4.1642 1.7703,-5.4863 1.1772,-1.3266 2.8024,-1.9899 4.8713,-1.9899 1.8098,0 3.2594,0.4788 4.3575,1.4408 1.0938,0.962 1.7043,2.2973 1.8317,4.0148l-3.7205 0c-0.101,-0.7467 -0.3646,-1.3178 -0.7863,-1.7087 -0.4173,-0.3953 -0.9707,-0.593 -1.656,-0.593 -0.9268,0 -1.6209,0.3646 -2.0777,1.0938 -0.4612,0.7291 -0.6896,1.8229 -0.6896,3.2812 0,1.3486 0.2372,2.3808 0.716,3.1056 0.4744,0.7248 1.1596,1.0894 2.0513,1.0894 0.694,0 1.2519,-0.2109 1.6736,-0.6282 0.4173,-0.4217 0.694,-1.0498 0.8214,-1.88z"/>
    <path id="_43115504123" class="fil2" d="M82.7535 88.3561l0 13.9904 -3.6678 0 0 -1.6604c-0.5315,0.6765 -1.1552,1.186 -1.8624,1.5242 -0.7073,0.3383 -1.5023,0.5096 -2.3852,0.5096 -1.5374,0 -2.6883,-0.4041 -3.457,-1.208 -0.7687,-0.8082 -1.1509,-2.0162 -1.1509,-3.6195l0 -9.5363 3.7469 0 0 8.4557c0,0.9971 0.1669,1.7044 0.5008,2.1304 0.3338,0.4261 0.8873,0.637 1.6604,0.637 0.8741,0 1.5725,-0.2636 2.0909,-0.7907 0.5183,-0.5271 0.7775,-1.2475 0.7775,-2.1568l0 -8.2756 3.7468 0z"/>
    <path id="_431155041234" class="fil2" d="M88.0473 102.347l0 -13.9904 3.474
6 0 0 2.3939c0.492,-0.9576 1.063,-1.6648 1.7131,-2.1128 0.6501,-0.4524 1.4276,-0.6765 2.3281,-0.6765 0.1449,0 0.2591,0 0.3426,0.0044 0.0791,0.0044 0.145,0.0132 0.1977,0.022l0.0132 3.7952 -1.2475 0c-1.0191,0 -1.7878,0.2679 -2.3018,0.7995 -0.5139,0.5315 -0.7731,1.3177 -0.7731,2.3676l0 7.3971 -3.7469 0z"/>
    <path id="_4311550412345" class="fil2" d="M108.812 98.0989l3.7337 0c-0.3777,1.4759 -1.1377,2.6311 -2.2841,3.4657 -1.1465,0.839 -2.5433,1.2563 -4.1906,1.2563 -2.0249,0 -3.6282,-0.6809 -4.8143,-2.0382 -1.1816,-1.3617 -1.7746,-3.2022 -1.7746,-5.5302 0,-2.2886 0.5843,-4.094 1.7483,-5.4161 1.1684,-1.3222 2.7629,-1.9811 4.7879,-1.9811 2.148,0 3.804,0.6501 4.9725,1.9503 1.164,1.3002 1.7482,3.1495 1.7482,5.5523 0,0.2679 0,0.4656 -0.0044,0.6018 -0.0044,0.1317 -0.0176,0.2591 -0.0351,0.3777l-9.3431 0c0.0527,1.0982 0.3207,1.924 0.8039,2.4818 0.4831,0.5579 1.1816,0.8346 2.0908,0.8346 0.6457,0 1.1729,-0.1273 1.5814,-0.3777 0.4129,-0.2548 0.7379,-0.6457 0.9795,-1.1772zm-5.4556 -4.2213l5.5083 0c-0.0351,-0.9444 -0.2855,-1.6604 -0.7511,-2.1568 -0.47,-0.492 -1.1421,-0.738 -2.0162,-0.738 -0.8126,0 -1.454,0.2504 -1.924,0.7468 -0.4656,0.4963 -0.7379,1.2123 -0.817,2.148z"/>
    <path id="_43115504123456" class="fil2" d="M133.485 102.347l0 -13.9904 3.4746 0 0 2.3939c0.492,-0.9576 1.063,-1.6648 1.7131,-2.1128 0.6501,-0.4524 1.4276,-0.6765 2.3281,-0.6765 0.1449,0 0.2591,0 0.3426,0.0044 0.0791,0.0044 0.145,0.0132 0.1977,0.022l0.0132 3.7952 -1.2475 0c-1.0191,0 -1.7878,0.2679 -2.3018,0.7995 -0.5139,0.5315 -0.7731,1.3177 -0.7731,2.3676l0 7.3971 -3.7469 0z"/>
    <path id="_431155041234567" class="fil2" d="M154.25 98.0989l3.7337 0c-0.3777,1.4759 -1.1377,2.6311 -2.2841,3.4657 -1.1465,0.839 -2.5433,1.2563 -4.1906,1.2563 -2.0249,0 -3.6282,-0.6809 -4.8143,-2.0382 -1.1816,-1.3617 -1.7746,-3.2022 -1.7746,-5.5302 0,-2.2886 0.5843,-4.094 1.7483,-5.4161 1.1684,-1.3222 2.7629,-1.9811 4.7879,-1.9811 2.148,0 3.804,0.6501 4.9725,1.9503 1.164,1.3002 1.7482,3.1495 1.7482,5.5523 0,0.2679 0,0.4656 -0.0044,0.6018 -0.0044,0.1317 -0.0176,0.2591 -0.0351,0.3777l-9.3431 0c0.0527,1.0982 0.3207,1.924 0.8039,2.4818 0.4831,0.5579 1.1816,0.8346 2.0908,0.8346 0.6457,0 1.1729,-0.1273 1.5814,-0.3777 0.4129,-0.2548 0.7379,-0.6457 0.9795,-1.1772zm-5.4556 -4.2213l5.5083 0c-0.0351,-0.9444 -0.2855,-1.6604 -0.7511,-2.1568 -0.47,-0.492 -1.1421,-0.738 -2.0162,-0.738 -0.8126,0 -1.454,0.2504 -1.924,0.7468 -0.4656,0.4963 -0.7379,1.2123 -0.817,2.148z"/>
    <path id="_4311550412345678" class="fil2" d="M161.885 97.787l3.7337 0c0.0351,0.7116 0.2899,1.2431 0.7731,1.5901 0.4788,0.347 1.1992,0.5227 2.1611,0.5227 0.7292,0 1.2959,-0.123 1.6956,-0.369 0.3997,-0.2415 0.5974,-0.5886 0.5974,-1.0366 0,-0.6325 -0.7468,-1.1113 -2.2403,-1.4276 -0.6105,-0.1274 -1.0937,-0.2416 -1.4539,-0.3338 -1.8229,-0.4657 -3.0836,-1.0103 -3.7908,-1.6473 -0.7072,-0.6325 -1.063,-1.4935 -1.063,-2.574 0,-1.432 0.5183,-2.5653 1.5506,-3.3999 1.0322,-0.839 2.4335,-1.2563 4.1993,-1.2563 1.8712,0 3.3428,0.4173 4.4102,1.2475 1.0674,0.8346 1.634,2.003 1.7043,3.5141l-3.6415 0c-0.0263,-0.593 -0.2504,-1.0498 -0.6764,-1.3793 -0.4217,-0.325 -1.0147,-0.4876 -1.7703,-0.4876 -0.7116,0 -1.2387,0.1055 -1.5857,0.3207 -0.347,0.2152 -0.5227,0.5359 -0.5227,0.9664 0,0.5578 0.9312,1.0498 2.7937,1.4803 0.4261,0.0922 0.7643,0.1713 1.0147,0.2328 1.8624,0.4348 3.1363,0.962 3.8172,1.5813 0.6808,0.615 1.0234,1.4847 1.0234,2.6092 0,1.5901 -0.5578,2.7981 -1.6779,3.6327 -1.1202,0.8302 -2.7498,1.2475 -4.8846,1.2475 -1.9328,0 -3.4438,-0.4349 -4.5332,-1.3002 -1.0893,-0.8654 -1.634,-2.0601 -1.634,-3.58l0 -0.1537z"/>
    <path id="_43115504123456789" class="fil2" d="M188.966 95.4325c0,-1.4056 -0.268,-2.4818 -0.7995,-3.2241 -0.5315,-0.7424 -1.3002,-1.1113 -2.3149,-1.1113 -0.9927,0 -1.7526,0.3689 -2.2709,1.1069 -0.5184,0.7379 -0.7775,1.8141 -0.7775,3.2285 0,1.3222 0.2723,2.3457 0.817,3.0661 0.5447,0.7204 1.3134,1.0806 2.3105,1.0806 0.9444,0 1.6824,-0.369 2.2227,-1.107 0.5403,-0.7379 0.8126,-1.7526 0.8126,-3.0397zm-9.8043 12.5234l0 -19.5998 3.5624 0 0 1.8932c0.5403,-0.8258 1.1465,-1.4232 1.8098,-1.801 0.6632,-0.3778 1.4495,-0.5666 2.35,-0.5666 1.7219,0 3.1231,0.6808 4.1949,2.0381 1.0718,1.3617 1.6077,3.1495 1.6077,5.359 0,2.2402 -0.5359,4.0588 -1.6077,5.4512 -1.0718,1.3925 -2.4554,2.0909 -4.1466,2.0909 -0.8917,0 -1.6867,-0.1889 -2.3852,-0.5666 -0.6984,-0.3778 -1.2826,-0.9269 -1.7438,-1.6473l0 7.3489 -3.6415 0z"/>
    <path id="_4311550412345678910" class="fil2" d="M200.348 95.3315c0,1.3881 0.2856,2.4599 0.8566,3.2154 0.571,0.7555 1.3837,1.1333 2.4379,1.1333 1.041,0 1.8449,-0.3778 2.4159,-1.1333 0.5711,-0.7555 0.8566,-1.8273 0.8566,-3.2154 0,-1.3793 -0.2811,-2.4467 -0.8478,-3.1978 -0.5666,-0.7511 -1.3749,-1.1245 -2.4247,-1.1245 -1.0542,0 -1.8669,0.3734 -2.4379,1.1245 -0.571,0.7511 -0.8566,1.8185 -0.8566,3.1978zm-3.7952 0c0,-2.3237 0.6326,-4.151 1.8932,-5.4819 1.2607,-1.331 2.9914,-1.9943 5.2009,-1.9943 2.1963,0 3.927,0.6633 5.192,1.9943 1.2651,1.3309 1.8976,3.1582 1.8976,5.4819 0,2.3325 -0.6325,4.1642 -1.8976,5.4952 -1.265,1.3309 -2.9957,1.9942 -5.192,1.9942 -2.2095,0 -3.9402,-0.6633 -5.2009,-1.9942 -1.2606,-1.331 -1.8932,-3.1627 -1.8932,-5.4952z"/>
    <path id="_431155041234567891011" class="fil2" d="M215.305 102.347l0 -13.9904 3.6679 0 0 1.6604c0.5271,-0.6765 1.142,-1.186 1.8536,-1.5243 0.7116,-0.3382 1.5067,-0.5095 2.3808,-0.5095 1.5462,0 2.7015,0.3997 3.4702,1.2036 0.7687,0.8038 1.1508,2.0074 1.1508,3.6239l0 9.5363 -3.7468 0 0 -8.4558c0,-1.0059 -0.1713,-1.7219 -0.5096,-2.1479 -0.3382,-0.4305 -0.8873,-0.6457 -1.6516,-0.6457 -0.8829,0 -1.5813,0.2635 -2.0953,0.7906 -0.5139,0.5271 -0.7731,1.2475 -0.7731,2.1568l0 8.302 -3.7469 0z"/>
    <path id="_43115504123456789101112" class="fil2" d="M232.284 97.787l3.7337 0c0.0351,0.7116 0.2899,1.2431 0.7731,1.5901 0.4788,0.347 1.1992,0.5227 2.1611,0.5227 0.7292,0 1.2959,-0.123 1.6956,-0.369 0.3997,-0.2415 0.5974,-0.5886 0.5974,-1.0366 0,-0.6325 -0.7468,-1.1113 -2.2403,-1.4276 -0.6105,-0.1274 -1.0937,-0.2416 -1.4539,-0.3338 -1.8229,-0.4657 -3.0836,-1.0103 -3.7908,-1.6473 -0.7072,-0.6325 -1.063,-1.4935 -1.063,-2.574 0,-1.432 0.5183,-2.5653 1.5506,-3.3999 1.0322,-0.839 2.4335,-1.2563 4.1993,-1.2563 1.8712,0 3.3428,0.4173 4.4102,1.2475 1.0674,0.8346 1.634,2.003 1.7043,3.5141l-3.6415 0c-0.0263,-0.593 -0.2504,-1.0498 -0.6764,-1.3793 -0.4217,-0.325 -1.0147,-0.4876 -1.7703,-0.4876 -0.7116,0 -1.2387,0.1055 -1.5857,0.3207 -0.347,0.2152 -0.5227,0.5359 -0.5227,0.9664 0,0.5578 0.9312,1.0498 2.7937,1.4803 0.4261,0.0922 0.7643,0.1713 1.0147,0.2328 1.8624,0.4348 3.1363,0.962 3.8172,1.5813 0.6808,0.615 1.0234,1.4847 1.0234,2.6092 0,1.5901 -0.5578,2.7981 -1.6779,3.6327 -1.1202,0.8302 -2.7498,1.2475 -4.8846,1.2475 -1.9328,0 -3.4438,-0.4349 -4.5332,-1.3002 -1.0893,-0.8654 -1.634,-2.0601 -1.634,-3.58l0 -0.1537z"/>
    <path id="_4311550412345678910111213" class="fil2" d="M258.104 98.0989l3.7337 0c-0.3777,1.4759 -1.1377,2.6311 -2.2841,3.4657 -1.1465,0.839 -2.5433,1.2563 -4.1906,1.2563 -2.0249,0 -3.6282,-0.6809 -4.8143,-2.0382 -1.1816,-1.3617 -1.7746,-3.2022 -1.7746,-5.5302 0,-2.2886 0.5843,-4.094 1.7483,-5.4161 1.1684,-1.3222 2.7629,-1.9811 4.7879,-1.9811 2.148,0 3.804,0.6501 4.9725,1.9503 1.164,1.3002 1.7482,3.1495 1.7482,5.5523 0,0.2679 0,0.4656 -0.0044,0.6018 -0.0044,0.1317 -0.0176,0.2591 -0.0351,0.3777l-9.3431 0c0.0527,1.0982 0.3207,1.924 0.8039,2.4818 0.4831,0.5579 1.1816,0.8346 2.0908,0.8346 0.6457,0 1.1729,-0.1273 1.5814,-0.3777 0.4129,-0.2548 0.7379,-0.6457 0.9795,-1.1772zm-5.4556 -4.2213l5.5083 0c-0.0351,-0.9444 -0.2855,-1.6604 -0.7511,-2.1568 -0.47,-0.492 -1.1421,-0.738 -2.0162,-0.738 -0.8126,0 -1.454,0.2504 -1.924,0.7468 -0.4656,0.4963 -0.7379,1.2123 -0.817,2.148z"/>
    <path id="_43106048" class="fil3" d="M18.8327 97.2484l3.7337 0c0.0351,0.7116 0.2899,1.2431 0.7731,1.5901 0.4788,0.347 1.1992,0.5227 2.1612,0.5227 0.7291,0 1.2958,-0.123 1.6955,-0.369 0.3997,-0.2416 0.5974,-0.5886 0.5974,-1.0366 0,-0.6326 -0.7467,-1.1114 -2.2402,-1.4276 -0.6106,-0.1274 -1.0938,-0.2416 -1.454,-0.3339 -1.8229,-0.4656 -3.0836,-1.0103 -3.7908,-1.6472 -0.7072,-0.6325 -1.063,-1.4935 -1.063,-2.5741 0,-1.432 0.5183,-2.5653 1.5506,-3.3999 1.0322,-0.8389 2.4335,-1.2562 4.1993,-1.2562 1.8713,0 3.3428,0.4173 4.4102,1.2475 1.0674,0.8346 1.6341,2.003 1.7043,3.5141l-3.6414 0c-0.0264,-0.593 -0.2504,-1.0499 -0.6765,-1.3793 -0.4217,-0.3251 -1.0147,-0.4876 -1.7702,-0.4876 -0.7116,0 -1.2387,0.1054 -1.5858,0.3207 -0.347,0.2152 -0.5227,0.5359 -0.5227,0.9663 0,0.5579 0.9313,1.0499 2.7937,1.4803 0.4261,0.0923 0.7643,0.1714
 1.0147,0.2328 1.8625,0.4349 3.1363,0.962 3.8172,1.5814 0.6809,0.615 1.0235,1.4847 1.0235,2.6092 0,1.5901 -0.5579,2.7981 -1.678,3.6327 -1.1201,0.8302 -2.7498,1.2475 -4.8846,1.2475 -1.9327,0 -3.4438,-0.4349 -4.5332,-1.3002 -1.0893,-0.8654 -1.634,-2.0601 -1.634,-3.58l0 -0.1537z"/>
    <path id="_431060481" class="fil3" d="M44.6532 97.5602l3.7337 0c-0.3778,1.476 -1.1377,2.6312 -2.2842,3.4658 -1.1464,0.839 -2.5433,1.2563 -4.1905,1.2563 -2.025,0 -3.6283,-0.6809 -4.8143,-2.0382 -1.1817,-1.3617 -1.7747,-3.2022 -1.7747,-5.5303 0,-2.2885 0.5843,-4.0939 1.7483,-5.4161 1.1684,-1.3221 2.763,-1.981 4.788,-1.981 2.1479,0 3.804,0.6501 4.9724,1.9503 1.164,1.3002 1.7483,3.1495 1.7483,5.5522 0,0.268 0,0.4657 -0.0044,0.6018 -0.0044,0.1318 -0.0176,0.2592 -0.0352,0.3778l-9.3431 0c0.0527,1.0982 0.3207,1.924 0.8039,2.4818 0.4832,0.5579 1.1816,0.8346 2.0909,0.8346 0.6457,0 1.1728,-0.1274 1.5813,-0.3777 0.4129,-0.2548 0.738,-0.6458 0.9796,-1.1773zm-5.4557 -4.2213l5.5084 0c-0.0352,-0.9444 -0.2855,-1.6604 -0.7512,-2.1567 -0.47,-0.492 -1.142,-0.738 -2.0162,-0.738 -0.8126,0 -1.4539,0.2504 -1.9239,0.7467 -0.4657,0.4964 -0.738,1.2124 -0.8171,2.148z"/>
    <path id="_4310604812" class="fil3" d="M61.5303 96.5324l3.6942 0c-0.1537,1.7746 -0.8038,3.1758 -1.9415,4.2081 -1.1421,1.0279 -2.6092,1.5418 -4.4014,1.5418 -2.0338,0 -3.6283,-0.6633 -4.7836,-1.9899 -1.1552,-1.3221 -1.7307,-3.1582 -1.7307,-5.4995 0,-2.3325 0.5887,-4.1642 1.7703,-5.4864 1.1772,-1.3266 2.8025,-1.9898 4.8714,-1.9898 1.8097,0 3.2593,0.4788 4.3575,1.4407 1.0937,0.962 1.7043,2.2974 1.8317,4.0149l-3.7206 0c-0.101,-0.7468 -0.3646,-1.3178 -0.7862,-1.7087 -0.4173,-0.3954 -0.9708,-0.593 -1.6561,-0.593 -0.9268,0 -1.6208,0.3645 -2.0777,1.0937 -0.4612,0.7292 -0.6896,1.823 -0.6896,3.2813 0,1.3485 0.2372,2.3808 0.716,3.1056 0.4744,0.7248 1.1596,1.0894 2.0513,1.0894 0.6941,0 1.2519,-0.2109 1.6736,-0.6282 0.4173,-0.4217 0.6941,-1.0498 0.8214,-1.88z"/>
    <path id="_43106048123" class="fil3" d="M82.0885 87.8174l0 13.9905 -3.6678 0 0 -1.6604c-0.5315,0.6765 -1.1553,1.186 -1.8625,1.5242 -0.7072,0.3383 -1.5023,0.5096 -2.3852,0.5096 -1.5374,0 -2.6883,-0.4041 -3.457,-1.208 -0.7687,-0.8082 -1.1509,-2.0162 -1.1509,-3.6195l0 -9.5364 3.7469 0 0 8.4558c0,0.9971 0.167,1.7043 0.5008,2.1304 0.3338,0.4261 0.8873,0.637 1.6604,0.637 0.8741,0 1.5726,-0.2636 2.0909,-0.7907 0.5183,-0.5271 0.7775,-1.2475 0.7775,-2.1568l0 -8.2757 3.7469 0z"/>
    <path id="_431060481234" class="fil3" d="M87.3823 101.808l0 -13.9905 3.4745 0 0 2.394c0.492,-0.9576 1.063,-1.6648 1.7131,-2.1129 0.6501,-0.4524 1.4276,-0.6764 2.3281,-0.6764 0.145,0 0.2592,0 0.3426,0.0044 0.0791,0.0044 0.145,0.0132 0.1977,0.0219l0.0132 3.7953 -1.2475 0c-1.0191,0 -1.7878,0.2679 -2.3017,0.7994 -0.514,0.5315 -0.7731,1.3178 -0.7731,2.3676l0 7.3972 -3.7469 0z"/>
    <path id="_4310604812345" class="fil3" d="M108.147 97.5602l3.7337 0c-0.3778,1.476 -1.1377,2.6312 -2.2842,3.4658 -1.1464,0.839 -2.5433,1.2563 -4.1905,1.2563 -2.025,0 -3.6283,-0.6809 -4.8143,-2.0382 -1.1817,-1.3617 -1.7747,-3.2022 -1.7747,-5.5303 0,-2.2885 0.5843,-4.0939 1.7483,-5.4161 1.1684,-1.3221 2.763,-1.981 4.788,-1.981 2.1479,0 3.804,0.6501 4.9724,1.9503 1.164,1.3002 1.7483,3.1495 1.7483,5.5522 0,0.268 0,0.4657 -0.0044,0.6018 -0.0044,0.1318 -0.0176,0.2592 -0.0352,0.3778l-9.3431 0c0.0527,1.0982 0.3207,1.924 0.8039,2.4818 0.4832,0.5579 1.1816,0.8346 2.0909,0.8346 0.6457,0 1.1728,-0.1274 1.5813,-0.3777 0.4129,-0.2548 0.738,-0.6458 0.9796,-1.1773zm-5.4557 -4.2213l5.5084 0c-0.0352,-0.9444 -0.2855,-1.6604 -0.7512,-2.1567 -0.47,-0.492 -1.142,-0.738 -2.0162,-0.738 -0.8126,0 -1.4539,0.2504 -1.9239,0.7467 -0.4657,0.4964 -0.738,1.2124 -0.8171,2.148z"/>
    <path id="_43106048123456" class="fil3" d="M132.82 101.808l0 -13.9905 3.4745 0 0 2.394c0.492,-0.9576 1.063,-1.6648 1.7131,-2.1129 0.6501,-0.4524 1.4276,-0.6764 2.3281,-0.6764 0.145,0 0.2592,0 0.3426,0.0044 0.0791,0.0044 0.145,0.0132 0.1977,0.0219l0.0132 3.7953 -1.2475 0c-1.0191,0 -1.7878,0.2679 -2.3017,0.7994 -0.514,0.5315 -0.7731,1.3178 -0.7731,2.3676l0 7.3972 -3.7469 0z"/>
    <path id="_431060481234567" class="fil3" d="M153.585 97.5602l3.7337 0c-0.3778,1.476 -1.1377,2.6312 -2.2842,3.4658 -1.1464,0.839 -2.5433,1.2563 -4.1905,1.2563 -2.025,0 -3.6283,-0.6809 -4.8143,-2.0382 -1.1817,-1.3617 -1.7747,-3.2022 -1.7747,-5.5303 0,-2.2885 0.5843,-4.0939 1.7483,-5.4161 1.1684,-1.3221 2.763,-1.981 4.788,-1.981 2.1479,0 3.804,0.6501 4.9724,1.9503 1.164,1.3002 1.7483,3.1495 1.7483,5.5522 0,0.268 0,0.4657 -0.0044,0.6018 -0.0044,0.1318 -0.0176,0.2592 -0.0352,0.3778l-9.3431 0c0.0527,1.0982 0.3207,1.924 0.8039,2.4818 0.4832,0.5579 1.1816,0.8346 2.0909,0.8346 0.6457,0 1.1728,-0.1274 1.5813,-0.3777 0.4129,-0.2548 0.738,-0.6458 0.9796,-1.1773zm-5.4557 -4.2213l5.5084 0c-0.0352,-0.9444 -0.2855,-1.6604 -0.7512,-2.1567 -0.47,-0.492 -1.142,-0.738 -2.0162,-0.738 -0.8126,0 -1.4539,0.2504 -1.9239,0.7467 -0.4657,0.4964 -0.738,1.2124 -0.8171,2.148z"/>
    <path id="_4310604812345678" class="fil3" d="M161.22 97.2484l3.7337 0c0.0351,0.7116 0.2899,1.2431 0.7731,1.5901 0.4788,0.347 1.1992,0.5227 2.1612,0.5227 0.7291,0 1.2958,-0.123 1.6955,-0.369 0.3997,-0.2416 0.5974,-0.5886 0.5974,-1.0366 0,-0.6326 -0.7467,-1.1114 -2.2402,-1.4276 -0.6106,-0.1274 -1.0938,-0.2416 -1.454,-0.3339 -1.8229,-0.4656 -3.0836,-1.0103 -3.7908,-1.6472 -0.7072,-0.6325 -1.063,-1.4935 -1.063,-2.5741 0,-1.432 0.5183,-2.5653 1.5506,-3.3999 1.0322,-0.8389 2.4335,-1.2562 4.1993,-1.2562 1.8713,0 3.3428,0.4173 4.4102,1.2475 1.0674,0.8346 1.6341,2.003 1.7043,3.5141l-3.6414 0c-0.0264,-0.593 -0.2504,-1.0499 -0.6765,-1.3793 -0.4217,-0.3251 -1.0147,-0.4876 -1.7702,-0.4876 -0.7116,0 -1.2387,0.1054 -1.5858,0.3207 -0.347,0.2152 -0.5227,0.5359 -0.5227,0.9663 0,0.5579 0.9313,1.0499 2.7937,1.4803 0.4261,0.0923 0.7643,0.1714 1.0147,0.2328 1.8625,0.4349 3.1363,0.962 3.8172,1.5814 0.6809,0.615 1.0235,1.4847 1.0235,2.6092 0,1.5901 -0.5579,2.7981 -1.678,3.6327 -1.1201,0.8302 -2.7498,1.2475 -4.8846,1.2475 -1.9327,0 -3.4438,-0.4349 -4.5332,-1.3002 -1.0893,-0.8654 -1.634,-2.0601 -1.634,-3.58l0 -0.1537z"/>
    <path id="_43106048123456789" class="fil3" d="M188.301 94.8939c0,-1.4056 -0.2679,-2.4818 -0.7994,-3.2242 -0.5315,-0.7423 -1.3002,-1.1113 -2.3149,-1.1113 -0.9928,0 -1.7527,0.369 -2.271,1.1069 -0.5183,0.738 -0.7775,1.8142 -0.7775,3.2286 0,1.3222 0.2723,2.3457 0.817,3.0661 0.5447,0.7204 1.3134,1.0806 2.3105,1.0806 0.9445,0 1.6824,-0.369 2.2227,-1.107 0.5403,-0.7379 0.8126,-1.7526 0.8126,-3.0397zm-9.8043 12.5234l0 -19.5999 3.5624 0 0 1.8932c0.5403,-0.8258 1.1465,-1.4232 1.8098,-1.8009 0.6633,-0.3778 1.4496,-0.5667 2.35,-0.5667 1.7219,0 3.1232,0.6809 4.195,2.0382 1.0718,1.3617 1.6077,3.1495 1.6077,5.359 0,2.2402 -0.5359,4.0588 -1.6077,5.4512 -1.0718,1.3925 -2.4555,2.0909 -4.1466,2.0909 -0.8917,0 -1.6868,-0.1889 -2.3852,-0.5666 -0.6985,-0.3778 -1.2827,-0.9269 -1.7439,-1.6473l0 7.3489 -3.6415 0z"/>
    <path id="_4310604812345678910" class="fil3" d="M199.683 94.7929c0,1.3881 0.2855,2.4599 0.8565,3.2154 0.5711,0.7555 1.3837,1.1333 2.4379,1.1333 1.0411,0 1.8449,-0.3778 2.416,-1.1333 0.571,-0.7555 0.8565,-1.8273 0.8565,-3.2154 0,-1.3793 -0.2811,-2.4467 -0.8478,-3.1978 -0.5666,-0.7512 -1.3748,-1.1245 -2.4247,-1.1245 -1.0542,0 -1.8668,0.3733 -2.4379,1.1245 -0.571,0.7511 -0.8565,1.8185 -0.8565,3.1978zm-3.7953 0c0,-2.3237 0.6326,-4.151 1.8933,-5.482 1.2606,-1.331 2.9913,-1.9942 5.2008,-1.9942 2.1963,0 3.927,0.6632 5.1921,1.9942 1.2651,1.331 1.8976,3.1583 1.8976,5.482 0,2.3325 -0.6325,4.1642 -1.8976,5.4952 -1.2651,1.3309 -2.9958,1.9942 -5.1921,1.9942 -2.2095,0 -3.9402,-0.6633 -5.2008,-1.9942 -1.2607,-1.331 -1.8933,-3.1627 -1.8933,-5.4952z"/>
    <path id="_431060481234567891011" class="fil3" d="M214.641 101.808l0 -13.9905 3.6678 0 0 1.6604c0.5271,-0.6764 1.1421,-1.186 1.8537,-1.5242 0.7116,-0.3382 1.5066,-0.5096 2.3808,-0.5096 1.5462,0 2.7014,0.3998 3.4701,1.2036 0.7687,0.8039 1.1509,2.0074 1.1509,3.6239l0 9.5364 -3.7469 0 0 -8.4558c0,-1.0059 -0.1713,-1.7219 -0.5095,-2.148 -0.3383,-0.4305 -0.8874,-0.6457 -1.6517,-0.6457 -0.8829,0 -1.5813,0.2636 -2.0952,0.7907 -0.514,0.5271 -0.7731,1.2475 -0.7731,2.1568l0 8.302 -3.7469 0z"/>
    <path id="_43106048123456789101112" class="fil3" d="M231.619 97.2484l3.7337 0c0.0351,0.7116 0.2899,1.2431 0.7731,1.5901 0.4788,0.347 1.1992,0.5227 2.1612,0.5227 0.7291,0 1.2958,-0.123 1.6955,-0.369 0.3997,-0.2416 0.5974,-0.5886 0.5974,-1.0366 0,-0.6326 -0.7467,-1.1114 -2.2402,-1.4276 -0.6106,-0.1274 -1.0938,-0.2416 -1.454,-0.333
9 -1.8229,-0.4656 -3.0836,-1.0103 -3.7908,-1.6472 -0.7072,-0.6325 -1.063,-1.4935 -1.063,-2.5741 0,-1.432 0.5183,-2.5653 1.5506,-3.3999 1.0322,-0.8389 2.4335,-1.2562 4.1993,-1.2562 1.8713,0 3.3428,0.4173 4.4102,1.2475 1.0674,0.8346 1.6341,2.003 1.7043,3.5141l-3.6414 0c-0.0264,-0.593 -0.2504,-1.0499 -0.6765,-1.3793 -0.4217,-0.3251 -1.0147,-0.4876 -1.7702,-0.4876 -0.7116,0 -1.2387,0.1054 -1.5858,0.3207 -0.347,0.2152 -0.5227,0.5359 -0.5227,0.9663 0,0.5579 0.9313,1.0499 2.7937,1.4803 0.4261,0.0923 0.7643,0.1714 1.0147,0.2328 1.8625,0.4349 3.1363,0.962 3.8172,1.5814 0.6809,0.615 1.0235,1.4847 1.0235,2.6092 0,1.5901 -0.5579,2.7981 -1.678,3.6327 -1.1201,0.8302 -2.7498,1.2475 -4.8846,1.2475 -1.9327,0 -3.4438,-0.4349 -4.5332,-1.3002 -1.0893,-0.8654 -1.634,-2.0601 -1.634,-3.58l0 -0.1537z"/>
    <path id="_4310604812345678910111213" class="fil3" d="M257.439 97.5602l3.7337 0c-0.3778,1.476 -1.1377,2.6312 -2.2842,3.4658 -1.1464,0.839 -2.5433,1.2563 -4.1905,1.2563 -2.025,0 -3.6283,-0.6809 -4.8143,-2.0382 -1.1817,-1.3617 -1.7747,-3.2022 -1.7747,-5.5303 0,-2.2885 0.5843,-4.0939 1.7483,-5.4161 1.1684,-1.3221 2.763,-1.981 4.788,-1.981 2.1479,0 3.804,0.6501 4.9724,1.9503 1.164,1.3002 1.7483,3.1495 1.7483,5.5522 0,0.268 0,0.4657 -0.0044,0.6018 -0.0044,0.1318 -0.0176,0.2592 -0.0352,0.3778l-9.3431 0c0.0527,1.0982 0.3207,1.924 0.8039,2.4818 0.4832,0.5579 1.1816,0.8346 2.0909,0.8346 0.6457,0 1.1728,-0.1274 1.5813,-0.3777 0.4129,-0.2548 0.738,-0.6458 0.9796,-1.1773zm-5.4557 -4.2213l5.5084 0c-0.0352,-0.9444 -0.2855,-1.6604 -0.7512,-2.1567 -0.47,-0.492 -1.142,-0.738 -2.0162,-0.738 -0.8126,0 -1.4539,0.2504 -1.9239,0.7467 -0.4657,0.4964 -0.738,1.2124 -0.8171,2.148z"/>
   </g>
   <g>
    <path id="_43082040" class="fil0" d="M264.212 188.712l-247.948 0 -1.0754 0 0 -67.6549 249.023 0 0 1.201 0 66.4539zm-121.031 -10.4566l1.0754 0 44.1285 0 0 -9.8257 -0.201 0 -16.4127 0 -1.0754 0 0 -19.6515 17.6891 0 0 -9.8257 -0.201 0 -45.0029 0 0 9.8257 1.0754 0 16.6137 0 0 1.201 0 18.4505 -17.6891 0 0 9.8257zm57.1983 -39.3029l45.0029 0 0.201 0 0 9.8257 -35.3782 0 0 29.4772 -8.7503 0 -1.0754 0 0 -39.3029zm-113.753 9.8257l1.0754 0 16.6137 0 0 1.201 0 28.2762 1.0754 0 8.7503 0 0 -29.4772 17.6891 0 0 -9.8257 -0.201 0 -45.0029 0 0 9.8257zm-52.8085 -9.8257l45.0029 0 0.201 0 0 9.8257 -35.3782 0 0 29.4772 -8.7503 0 -1.0754 0 0 -39.3029z"/>
    <polygon id="_43086840" class="fil1" points="34.8927,140.153 78.8202,140.153 78.8202,138.952 33.8173,138.952 33.8173,178.255 34.8927,178.255 "/>
    <polygon id="_43092040" class="fil1" points="131.629,140.153 87.7012,140.153 87.7012,148.778 86.6258,148.778 86.6258,138.952 131.629,138.952 "/>
    <polygon id="_43096736" class="fil1" points="104.315,149.979 105.39,149.979 105.39,178.255 104.315,178.255 "/>
    <polygon id="_44249048" class="fil1" points="201.454,140.153 245.382,140.153 245.382,138.952 200.379,138.952 200.379,178.255 201.454,178.255 "/>
    <polygon id="_44605424" class="fil1" points="160.87,149.979 161.945,149.979 161.945,169.63 144.256,169.63 144.256,178.255 143.181,178.255 143.181,168.429 160.669,168.429 160.87,168.429 "/>
    <polygon id="_43090928" class="fil1" points="188.183,140.153 144.256,140.153 144.256,148.778 143.181,148.778 143.181,138.952 188.183,138.952 "/>
    <polygon id="_43095744" class="fil1" points="188.183,169.63 171.771,169.63 171.771,168.429 188.183,168.429 "/>
   </g>
  </g>
 </g>
</svg>
